<?xml version="1.0" standalone="no"?>
<!DOCTYPE svg PUBLIC "-//W3C//DTD SVG 20010904//EN"
 "http://www.w3.org/TR/2001/REC-SVG-20010904/DTD/svg10.dtd">
<svg version="1.0" xmlns="http://www.w3.org/2000/svg"
 width="929.000000pt" height="929.000000pt" viewBox="0 0 929.000000 929.000000"
 preserveAspectRatio="xMidYMid meet">
<metadata>
Created by potrace 1.14, written by Peter Selinger 2001-2017
</metadata>
<g transform="translate(0.000000,929.000000) scale(0.100000,-0.100000)"
fill="#000000" stroke="none">
<path d="M4400 9197 c-3 -2 -63 -8 -135 -11 -479 -26 -1010 -159 -1507 -380
-646 -286 -1225 -736 -1683 -1306 -436 -543 -743 -1201 -889 -1905 -78 -380
-111 -869 -82 -1235 52 -654 184 -1151 446 -1685 315 -640 780 -1208 1325
-1620 595 -449 1262 -738 1970 -855 309 -51 464 -64 760 -64 592 0 1148 104
1679 316 1047 417 1881 1191 2378 2208 325 665 473 1367 455 2155 -7 293 -18
417 -58 655 -50 297 -130 577 -249 880 -399 1013 -1176 1868 -2145 2360 -510
259 -1006 405 -1600 470 -104 12 -656 26 -665 17z m595 -47 c283 -29 496 -67
745 -134 473 -127 941 -340 1360 -619 956 -638 1675 -1720 1911 -2873 59 -290
43 -408 -95 -689 -123 -249 -243 -422 -550 -795 -221 -269 -362 -372 -775
-569 -293 -140 -357 -167 -527 -221 -304 -97 -514 -132 -929 -155 -154 -8
-295 -17 -314 -20 -51 -7 -279 13 -421 36 -518 86 -932 281 -1257 592 -387
372 -616 810 -715 1367 -30 171 -33 510 -5 610 94 329 310 579 642 740 133 65
222 92 370 115 207 31 362 16 530 -51 96 -38 101 -48 86 -143 -20 -119 9 -179
104 -216 l40 -15 -30 22 c-124 94 -136 175 -38 255 77 63 112 169 80 244 -13
33 -22 38 -84 58 -39 11 -119 32 -179 46 -281 65 -306 89 -224 216 43 67 48
90 25 109 -12 10 -33 11 -98 1 -45 -6 -115 -11 -154 -11 l-73 0 1 28 c0 15 8
77 18 139 20 129 29 143 110 173 70 26 101 41 101 51 0 4 -19 14 -42 21 -42
14 -43 15 -46 66 -3 59 -8 60 -84 5 -92 -67 -157 -50 -258 67 -70 81 -98 95
-145 76 -20 -9 -63 -36 -97 -62 -100 -78 -164 -87 -231 -34 -38 30 -41 9 -7
-62 16 -34 30 -68 30 -74 0 -24 -46 -68 -94 -90 -71 -33 -112 -31 -192 12 -68
36 -68 36 -136 25 -98 -16 -146 -38 -165 -75 -36 -71 -59 -79 -134 -47 -106
46 -164 37 -309 -45 -88 -50 -99 -54 -160 -54 -36 0 -101 7 -145 15 -104 20
-125 15 -125 -30 0 -41 3 -42 37 -15 33 26 60 25 125 -2 46 -19 70 -21 176
-20 125 3 158 -5 204 -45 15 -14 21 -13 51 6 46 28 63 27 98 -8 38 -38 37 -74
-2 -136 -58 -92 -38 -135 64 -135 96 0 151 -45 145 -117 l-3 -38 -85 -27 c-83
-27 -124 -56 -114 -81 2 -7 24 -23 48 -35 68 -37 79 -76 46 -163 -41 -111
-105 -138 -166 -73 -30 31 -35 33 -40 17 -37 -106 -57 -122 -107 -83 -14 11
-30 20 -36 20 -23 0 -187 -51 -208 -65 -37 -25 -61 -17 -122 39 -63 58 -108
86 -139 86 -33 0 -70 -38 -87 -90 -20 -60 -62 -105 -106 -114 -17 -3 -69 -6
-114 -6 -126 0 -196 -33 -236 -111 -35 -70 -26 -88 71 -136 47 -24 113 -52
148 -64 34 -11 62 -24 62 -27 0 -4 -16 -17 -35 -29 -21 -14 -44 -43 -59 -75
-14 -29 -49 -77 -79 -106 l-54 -53 -54 21 c-76 30 -79 34 -79 102 0 33 -5 68
-10 79 -15 26 -46 24 -75 -6 -28 -27 -32 -65 -13 -126 16 -54 -7 -79 -72 -79
l-47 0 -9 -42 c-11 -52 -35 -60 -72 -25 -84 78 -162 73 -368 -23 -267 -124
-502 -373 -665 -705 -67 -137 -113 -269 -129 -370 -12 -76 -14 -80 -29 -71
-25 16 -34 129 -34 431 0 398 23 639 94 968 86 394 230 778 441 1169 399 742
927 1298 1638 1728 132 80 430 231 577 293 472 200 934 312 1421 347 145 10
553 4 687 -10z m-878 -1787 l-27 -27 -21 20 -21 21 34 21 c29 19 35 19 48 7
13 -13 11 -18 -13 -42z m255 -470 c23 -21 23 -30 -3 -72 l-20 -34 -35 34 c-40
39 -41 45 -11 70 28 23 45 24 69 2z m-970 -57 c19 -44 4 -59 -52 -54 -28 3
-53 8 -57 12 -4 3 6 20 22 36 35 37 71 39 87 6z m-197 -1470 c28 -316 28 -306
17 -306 -11 0 -38 89 -53 180 -15 86 -18 385 -5 415 13 28 12 30 41 -289z
m-473 152 c9 -29 28 -114 43 -188 64 -329 116 -490 230 -720 58 -117 73 -156
64 -166 -12 -15 -37 -6 -73 25 -35 30 -245 489 -275 601 -33 123 -55 431 -35
484 12 30 30 16 46 -36z m-270 -12 c9 -19 50 -146 92 -282 41 -137 89 -290
106 -339 45 -127 154 -350 254 -518 94 -157 120 -212 112 -233 -8 -21 -17 -18
-82 24 -47 30 -66 51 -89 95 -28 53 -32 56 -70 59 l-40 3 -7 60 c-16 128 -65
231 -126 267 -28 17 -29 21 -34 110 -4 70 -13 114 -37 178 -22 59 -29 94 -25
116 4 21 -1 44 -14 70 -26 52 -29 70 -42 201 -5 61 -17 130 -25 153 -8 24 -15
49 -15 56 0 26 26 14 42 -20z m532 -133 c3 -10 24 -103 46 -208 54 -247 120
-444 221 -658 94 -200 113 -246 106 -253 -9 -10 -45 15 -71 49 -27 35 -165
335 -221 478 -76 197 -127 455 -111 564 7 46 21 59 30 28z m-791 -150 c15 -75
24 -139 22 -141 -2 -3 -10 -2 -18 1 -9 3 -22 48 -35 120 -26 135 -27 157 -8
157 9 0 21 -40 39 -137z m-204 50 c5 -10 20 -65 34 -123 60 -249 137 -445 303
-767 106 -206 122 -256 89 -283 -12 -10 -17 -5 -31 29 -19 48 -42 64 -86 59
-30 -3 -31 -1 -63 87 -48 134 -81 203 -131 275 -34 51 -47 80 -55 130 -5 36
-30 143 -55 238 -38 148 -44 188 -44 273 0 80 3 99 15 99 8 0 18 -8 24 -17z
m-277 -94 c10 -19 45 -126 79 -239 78 -260 217 -649 269 -749 53 -102 52 -133
-1 -182 -39 -36 -95 -67 -104 -57 -3 3 0 19 6 36 9 27 7 39 -10 74 -12 24 -39
62 -61 85 l-40 43 -35 -17 c-19 -9 -37 -14 -41 -11 -3 4 10 56 29 117 l35 111
-34 0 c-43 0 -49 12 -26 57 28 56 34 89 22 132 -15 58 -49 83 -104 80 -25 -2
-48 0 -52 4 -4 3 6 21 21 38 30 36 30 45 1 181 -8 43 -19 127 -22 188 -6 98
-5 112 11 130 24 26 36 22 57 -21z m-217 -281 c15 -51 56 -190 90 -308 35
-118 89 -303 120 -410 86 -293 89 -304 81 -333 -6 -26 -9 -27 -44 -21 -64 11
-76 25 -117 140 -27 78 -37 123 -37 163 1 71 -29 193 -73 296 -19 44 -53 146
-75 227 l-40 147 27 96 c15 52 30 95 33 95 4 0 19 -42 35 -92z m766 59 c18
-14 61 -95 119 -226 21 -47 84 -185 140 -306 159 -344 158 -341 78 -314 -49
16 -88 61 -88 100 0 38 -18 81 -73 171 -71 118 -125 232 -158 334 -17 52 -34
94 -37 94 -4 0 -18 9 -32 20 l-25 19 24 25 c23 25 24 26 6 46 -33 36 6 68 46
37z m-1027 -135 c43 -109 113 -305 211 -591 37 -106 94 -257 127 -335 33 -77
62 -154 65 -171 4 -26 -11 -50 -101 -171 -57 -78 -110 -145 -116 -149 -29 -18
-26 15 6 65 19 30 34 62 34 71 0 10 -12 32 -27 50 l-28 33 -7 -54 c-5 -42 -13
-60 -33 -77 -47 -41 -72 -23 -54 39 12 44 12 218 -1 218 -5 0 -15 -9 -22 -20
-16 -25 -34 -26 -47 -2 -6 11 -28 91 -50 180 -25 100 -54 188 -75 231 -64 127
-175 380 -181 414 -7 34 6 99 25 127 19 27 54 -34 141 -244 45 -110 107 -257
138 -326 69 -152 223 -449 251 -481 l20 -24 34 40 c37 42 38 55 2 55 -47 0
-57 19 -46 85 15 88 15 88 -20 70 -37 -19 -50 -19 -50 0 0 9 -16 64 -34 123
-19 59 -42 140 -52 181 -13 60 -24 82 -56 117 l-40 43 7 71 c6 63 2 89 -46
284 -28 117 -49 221 -46 230 14 35 34 12 71 -82z m1938 -539 c94 -127 248
-359 248 -375 0 -4 -13 -8 -30 -8 -26 0 -33 7 -55 50 -24 48 -48 82 -191 280
-33 47 -69 100 -78 119 -17 32 -16 61 2 61 5 0 52 -57 104 -127z m-2302 -79
c31 -60 72 -145 92 -189 21 -44 88 -190 150 -325 66 -143 135 -277 167 -322
57 -84 61 -113 14 -124 -20 -5 -31 0 -54 24 -34 36 -50 34 -78 -14 -14 -23
-28 -34 -44 -34 -37 0 -38 9 -6 64 40 72 38 79 -17 56 -25 -11 -48 -20 -50
-20 -11 0 -2 32 21 71 14 24 25 47 25 50 0 4 -27 17 -60 29 -33 12 -60 26 -60
30 0 5 11 17 26 27 l25 19 -42 72 c-37 65 -42 80 -42 134 1 54 -3 65 -34 106
-71 93 -106 188 -122 336 -11 90 -3 131 22 124 7 -2 37 -53 67 -114z m2778
-131 c75 -114 141 -213 145 -220 5 -8 3 -13 -6 -13 -17 0 -133 131 -183 207
-37 55 -98 174 -109 211 -17 58 26 6 153 -185z m-14 -158 c91 -115 166 -213
166 -217 1 -55 -256 231 -359 399 -36 59 -33 90 5 52 12 -13 97 -118 188 -234z
m4979 219 c21 -21 -131 -233 -320 -444 -240 -270 -434 -424 -848 -673 -295
-178 -321 -195 -307 -209 16 -16 131 35 322 145 304 174 558 374 858 674 111
112 205 203 207 203 3 0 5 -15 5 -32 0 -41 -34 -85 -240 -322 -155 -177 -186
-217 -159 -201 113 67 312 217 478 361 160 139 171 148 181 138 28 -28 -178
-248 -357 -383 -108 -81 -142 -103 -443 -278 -209 -122 -319 -193 -320 -206 0
-21 39 -14 170 33 325 117 665 291 946 487 97 67 114 74 114 46 0 -85 -311
-333 -620 -496 -251 -132 -559 -252 -730 -284 -164 -31 -855 -22 -888 12 -13
13 23 92 55 121 20 18 162 97 317 175 655 331 625 311 1048 708 209 196 485
431 506 431 10 0 21 -3 25 -6z m-5972 -103 c52 -11 141 -25 199 -31 142 -15
219 -34 384 -92 196 -69 228 -87 323 -189 24 -26 54 -42 132 -67 102 -34 154
-66 164 -101 7 -27 -24 -91 -63 -130 -36 -36 -36 -36 -161 -15 -34 6 -38 3
-70 -40 -47 -66 -89 -90 -145 -83 -45 5 -94 37 -94 62 0 7 9 20 20 30 11 10
20 22 20 26 0 5 -25 27 -55 49 -103 76 -135 36 -64 -81 54 -90 56 -132 11
-213 -20 -34 -32 -70 -32 -92 0 -41 -25 -100 -45 -108 -8 -3 -24 3 -36 13 -21
16 -21 21 -10 49 7 17 11 35 10 40 -7 19 -101 -20 -179 -73 -91 -62 -83 -65
-120 50 -23 72 -82 145 -116 145 -17 0 -17 -1 38 -79 40 -58 51 -117 23 -127
-8 -3 -40 6 -71 20 l-57 26 7 -94 c5 -70 4 -100 -6 -115 -17 -28 -59 -27 -87
3 -29 30 -68 38 -133 26 -285 -54 -420 -379 -308 -742 42 -135 192 -357 350
-517 92 -93 267 -236 425 -348 229 -162 482 -300 780 -428 99 -43 184 -81 189
-86 17 -15 -35 -58 -88 -75 -72 -22 -236 -29 -352 -15 -401 48 -1032 218
-1376 371 -193 85 -376 225 -438 333 -37 66 -55 163 -42 239 5 32 6 58 3 58
-3 0 -14 -20 -24 -44 -21 -51 -62 -96 -87 -96 -28 0 -52 36 -52 77 1 47 39
297 52 343 12 42 -4 66 -19 29 -21 -55 -124 -285 -131 -292 -11 -12 -78 50
-99 92 -33 64 -33 91 4 354 19 141 35 271 35 288 0 67 -28 15 -103 -191 -42
-117 -79 -216 -82 -218 -8 -8 -62 19 -84 42 -52 56 -46 107 37 296 28 63 48
118 45 123 -3 5 -53 -39 -112 -97 -58 -58 -109 -106 -113 -106 -10 0 -118 198
-118 216 0 9 58 75 128 148 154 157 164 179 160 327 l-3 94 -37 3 c-44 4 -45
9 -18 55 18 31 19 35 4 41 -8 3 -29 6 -45 6 -34 0 -35 4 -9 38 l21 26 -52 44
c-50 44 -51 46 -44 89 7 46 7 45 -49 58 -25 5 -28 9 -22 38 7 35 -15 77 -39
77 -25 0 -27 19 -5 50 l21 29 -30 15 c-38 20 -64 58 -86 126 -10 30 -26 72
-37 93 -11 22 -18 40 -16 42 2 1 18 10 35 19 48 24 40 36 -22 36 -30 0 -55 2
-55 5 0 14 74 115 84 115 6 0 45 -67 86 -148 42 -81 160 -310 264 -510 l188
-363 -41 -53 c-52 -67 -58 -131 -9 -93 9 6 108 147 219 312 282 419 398 554
598 698 251 181 447 226 732 168z m-2113 -598 c21 -31 258 -457 333 -601 27
-51 49 -101 49 -111 0 -29 -80 -85 -97 -67 -3 2 2 26 11 52 20 58 20 54 -5 54
-38 0 -56 19 -79 82 -13 35 -64 151 -113 258 -127 279 -156 360 -128 360 5 0
18 -12 29 -27z m3865 -51 c35 -16 37 -19 24 -36 -14 -19 -15 -19 -61 8 -25 15
-46 31 -46 36 0 15 40 11 83 -8z m177 -87 c42 -22 37 -31 -16 -39 -81 -11
-114 -8 -108 9 7 18 52 44 77 45 10 0 31 -7 47 -15z m-345 -111 c142 -109 394
-264 650 -399 166 -88 197 -107 188 -116 -11 -11 -151 36 -256 86 -229 108
-540 321 -648 443 -38 44 -51 71 -26 55 6 -4 48 -35 92 -69z m593 37 c22 -11
44 -25 47 -31 17 -28 -189 -67 -285 -54 -59 8 -64 23 -17 58 77 59 173 69 255
27z m-1398 -71 c25 -20 88 -66 140 -102 415 -285 936 -489 1651 -647 471 -104
851 -90 1639 63 93 18 621 137 789 177 152 37 245 47 256 28 6 -8 2 -17 -9
-23 -10 -6 -54 -35 -98 -64 -90 -58 -120 -68 -225 -78 -40 -4 -73 -11 -73 -17
0 -5 29 -37 65 -72 36 -34 70 -76 76 -93 10 -29 15 -32 85 -43 145 -23 97 -40
-197 -69 -114 -11 -215 -23 -224 -26 -9 -4 -25 -26 -35 -49 -16 -37 -24 -44
-79 -64 -34 -12 -61 -25 -61 -28 0 -3 16 -26 36 -50 54 -66 32 -73 -159 -54
-372 38 -382 38 -359 -13 13 -30 93 -69 260 -127 124 -42 174 -70 159 -86 -13
-12 -327 -7 -437 7 -126 16 -217 44 -445 133 -325 128 -359 140 -387 140 -41
0 -43 -8 -14 -57 28 -48 66 -81 169 -145 63 -40 86 -71 52 -71 -26 0 -17 -27
26 -76 55 -64 69 -102 49 -134 -13 -20 -53 20 -186 181 -57 70 -111 129 -120
133 -23 9 -77 7 -93 -3 -17 -11 -22 -4 126 -194 68 -87 123 -162 123 -168 0
-14 -54 -2 -102 22 -20 10 -89 76 -154 146 -64 71 -131 137 -148 147 -30 18
-34 18 -64 4 l-32 -16 -66 79 c-36 44 -76 85 -89 91 -34 15 -77 -9 -88 -49
-13 -43 15 -98 133 -263 50 -69 90 -131 90 -137 0 -25 -23 -12 -90 50 -70 63
-128 130 -285 326 -97 122 -138 150 -155 106 -12 -32 12 -103 92 -267 34 -70
59 -131 55 -134 -8 -9 -100 44 -200 115 -117 83 -245 197 -443 393 -186 184
-189 186 -201 99 -6 -47 14 -87 140 -276 100 -149 180 -255 316 -414 58 -68
124 -145 146 -171 22 -27 75 -89 118 -138 66 -78 92 -122 72 -122 -20 0 -188
107 -320 203 -200 146 -431 363 -574 540 -88 109 -336 483 -367 554 -25 55
-66 87 -107 81 -48 -7 -30 -41 164 -309 106 -145 258 -354 337 -464 80 -110
165 -227 189 -260 43 -59 61 -100 49 -112 -11 -12 -77 50 -258 244 -290 310
-337 366 -631 746 -149 193 -239 292 -277 306 -50 17 -55 -15 -25 -163 29
-143 31 -174 10 -182 -39 -16 -185 132 -245 248 -56 106 -63 173 -28 249 14
30 38 69 53 88 40 46 137 91 198 91 89 0 110 22 141 145 8 33 24 82 35 108 19
45 22 47 43 36 13 -7 43 -28 68 -49z m1650 -21 c25 -5 133 -38 240 -74 297
-97 615 -174 890 -215 210 -32 214 -46 20 -80 -69 -12 -204 -37 -300 -56 -203
-39 -190 -38 -190 -20 0 9 48 32 125 62 68 27 121 52 117 55 -14 13 -189 39
-263 39 -57 0 -102 -8 -175 -30 -86 -27 -289 -72 -364 -82 -16 -2 -26 2 -27
12 -2 11 31 30 114 64 211 89 223 95 223 105 0 19 -48 12 -212 -29 -156 -39
-279 -52 -292 -31 -3 5 49 29 116 54 115 42 155 67 110 67 -11 0 -91 -13 -178
-30 -182 -34 -200 -36 -208 -15 -6 16 -6 16 112 84 41 24 71 45 68 48 -2 3
-62 -3 -133 -12 -71 -9 -140 -15 -153 -13 -25 3 -24 4 12 31 84 64 232 92 348
66z m-1000 -190 c33 -27 58 -55 54 -60 -3 -6 -13 -8 -21 -5 -28 11 -123 91
-123 103 0 25 30 12 90 -38z m297 -25 c212 -129 519 -269 821 -374 137 -47
177 -69 159 -86 -3 -3 -61 9 -129 27 -85 23 -155 35 -228 38 -84 5 -105 9
-105 21 0 9 9 15 23 14 12 0 22 3 22 8 0 5 -107 62 -237 125 -315 153 -443
237 -443 288 0 9 9 4 117 -61z m1378 -134 c0 -9 -33 -26 -90 -47 -102 -36
-115 -38 -115 -20 0 15 166 88 190 84 8 -1 15 -9 15 -17z m2915 2 c0 -27 -161
-215 -344 -402 -300 -306 -322 -330 -306 -330 14 0 135 93 317 243 79 64 106
74 72 25 -52 -74 -142 -157 -289 -266 -240 -178 -247 -184 -375 -276 -66 -48
-131 -96 -145 -106 l-25 -19 45 6 c107 14 267 83 427 184 16 9 26 10 33 3 23
-23 -64 -98 -202 -176 -660 -373 -922 -480 -1352 -553 -205 -35 -232 -48 -156
-79 62 -25 126 -20 396 29 316 58 480 96 605 139 68 24 99 30 99 22 0 -16 -93
-97 -194 -170 -156 -112 -256 -141 -425 -125 -162 16 -811 1 -847 -19 -16 -9
-15 -11 4 -21 12 -7 59 -16 105 -22 45 -6 106 -13 136 -17 30 -4 56 -13 59
-19 8 -27 -55 -33 -357 -33 -256 0 -311 -2 -320 -14 -10 -12 -8 -18 11 -29 13
-8 39 -20 58 -25 53 -17 518 -81 659 -92 119 -9 156 -19 136 -39 -25 -24 -343
-44 -482 -31 -104 10 -146 18 -354 73 -52 14 -128 29 -169 33 l-73 7 18 -30
c11 -18 68 -64 141 -112 129 -86 155 -117 87 -105 -105 17 -304 80 -433 136
-112 49 -290 103 -312 96 -24 -8 89 -88 238 -168 143 -77 189 -110 152 -110
-7 0 -101 27 -208 60 -107 33 -302 83 -434 111 -132 28 -247 54 -256 59 -19
11 -43 4 285 86 487 121 818 211 1016 277 368 121 723 283 1159 527 102 57
219 123 261 146 676 377 900 536 1295 917 139 135 230 217 240 217 2 0 4 -4 4
-8z m-3212 -242 c113 -40 146 -59 128 -77 -9 -9 -148 36 -306 99 -132 52 -146
60 -136 77 4 6 40 -2 99 -23 50 -18 148 -53 215 -76z m-2348 -457 c129 -141
317 -346 418 -456 100 -110 180 -202 178 -205 -6 -5 -141 106 -246 202 -269
244 -403 393 -542 600 -60 90 -71 116 -50 116 4 0 113 -116 242 -257z m-43
-199 c59 -63 110 -119 111 -125 7 -19 -36 -8 -81 22 -99 66 -202 219 -147 219
5 0 57 -52 117 -116z m-177 -79 c37 -37 41 -46 30 -60 -7 -8 -15 -15 -19 -15
-13 0 -82 101 -76 110 10 17 19 12 65 -35z m312 -306 c123 -110 225 -204 226
-210 12 -32 -85 23 -199 112 -74 58 -202 177 -246 228 -32 38 -39 71 -14 71 6
0 110 -90 233 -201z m432 -224 c325 -319 386 -385 359 -385 -11 0 -743 733
-743 743 0 5 4 7 9 5 5 -1 174 -165 375 -363z m-485 -54 c77 -48 94 -67 67
-77 -40 -15 -253 127 -239 161 6 17 18 11 172 -84z m1662 -788 c119 -63 144
-83 120 -97 -14 -9 -276 130 -279 148 -6 28 28 17 159 -51z"/>
<path d="M2822 8577 l-42 -43 23 -22 c30 -28 58 -28 84 1 28 30 34 62 16 86
-20 30 -34 26 -81 -22z"/>
<path d="M3685 8613 c-60 -7 -176 -36 -182 -46 -3 -5 10 -7 33 -3 22 4 122 15
223 26 102 11 187 22 189 25 6 6 -216 4 -263 -2z"/>
<path d="M4497 8513 c-12 -12 -7 -50 8 -63 13 -11 20 -11 40 0 33 17 31 32 -4
53 -33 19 -35 20 -44 10z"/>
<path d="M3221 8494 c-78 -16 -167 -58 -181 -85 -10 -17 -8 -18 17 -8 16 6 82
31 148 56 66 24 122 46 124 49 8 8 -44 2 -108 -12z"/>
<path d="M4120 8448 l-34 -33 68 -3 c38 -2 71 0 74 3 3 3 1 18 -4 33 -15 42
-62 42 -104 0z"/>
<path d="M2329 8393 c-14 -37 -2 -55 47 -71 60 -20 103 -3 104 41 0 17 -2 17
-29 -2 -34 -25 -49 -26 -77 -6 -15 10 -20 22 -17 40 7 34 -15 32 -28 -2z"/>
<path d="M2805 8363 c-89 -11 -305 -57 -410 -87 -122 -35 -207 -64 -192 -65 5
-1 131 26 280 58 496 109 458 99 402 99 -27 -1 -63 -3 -80 -5z"/>
<path d="M4225 8308 c-48 -28 -60 -83 -24 -119 17 -17 29 -20 58 -15 39 6 139
43 155 57 21 19 -85 94 -122 87 -10 -2 -2 -12 26 -31 23 -15 42 -31 42 -35 0
-13 -100 -64 -115 -58 -8 3 -22 17 -31 31 -17 26 -16 27 16 60 34 35 32 44 -5
23z"/>
<path d="M3114 8211 c-62 -27 -84 -116 -40 -167 l23 -28 8 70 c4 38 11 74 16
80 7 8 25 8 67 -2 78 -19 116 -17 135 4 24 26 21 36 -5 18 -30 -22 -64 -20
-98 4 -34 24 -77 33 -106 21z"/>
<path d="M1935 8114 c-154 -66 -344 -225 -457 -384 -61 -85 -158 -241 -158
-252 0 -13 150 168 249 302 47 63 92 121 101 128 14 11 281 190 326 219 32 20
2 14 -61 -13z"/>
<path d="M4065 8059 c-44 -4 -102 -13 -130 -20 l-50 -13 40 -7 c22 -4 78 -3
125 3 167 20 268 -1 403 -82 72 -44 113 -50 153 -24 32 21 68 16 217 -31 91
-28 124 -43 144 -66 15 -16 43 -33 62 -38 202 -50 142 8 -107 103 -171 65
-216 76 -330 76 -88 1 -92 2 -257 65 -85 32 -164 42 -270 34z"/>
<path d="M3008 7941 c-63 -48 -87 -79 -73 -101 4 -6 24 -19 45 -30 21 -11 41
-24 45 -30 13 -21 -19 -51 -105 -96 -98 -50 -108 -67 -74 -119 14 -22 14 -24
-5 -34 -11 -6 -57 -10 -101 -9 -66 1 -84 -1 -98 -16 -16 -18 -13 -18 86 -13
120 6 152 20 152 68 0 46 16 66 73 95 123 62 131 84 67 176 l-41 57 56 42 c50
38 67 59 48 59 -5 0 -38 -22 -75 -49z"/>
<path d="M5253 7636 c11 -36 25 -66 29 -66 15 0 8 55 -10 90 -32 58 -42 45
-19 -24z"/>
<path d="M1995 7670 c-78 -9 -152 -34 -190 -65 l-30 -24 26 -1 c15 0 76 11
137 25 128 29 188 33 221 16 22 -12 23 -16 17 -90 -8 -88 -4 -94 57 -105 27
-5 53 -1 93 13 38 15 79 21 132 21 98 0 116 10 69 39 -46 28 -87 27 -149 -5
-44 -22 -61 -25 -106 -21 -30 3 -57 8 -60 12 -3 3 0 25 7 48 23 72 20 110 -9
123 -32 15 -139 22 -215 14z"/>
<path d="M5423 7625 c-38 -16 -73 -50 -73 -70 0 -10 16 -5 58 20 63 39 100 43
156 20 36 -15 37 -15 26 4 -6 11 -19 25 -30 31 -26 14 -99 12 -137 -5z"/>
<path d="M5675 7595 c-44 -24 -43 -25 28 -18 78 7 105 -6 136 -65 18 -34 20
-35 21 -12 1 72 -116 132 -185 95z"/>
<path d="M1594 7425 c-58 -45 -75 -65 -56 -65 7 0 99 61 131 87 3 2 0 8 -6 14
-6 6 -29 -5 -69 -36z"/>
<path d="M5673 7424 c-9 -4 -7 -19 8 -57 24 -62 30 -69 47 -58 10 6 8 20 -10
64 -13 32 -25 57 -28 56 -3 0 -10 -3 -17 -5z"/>
<path d="M1442 7256 c-33 -56 -39 -76 -22 -76 15 0 83 107 75 119 -11 19 -20
12 -53 -43z"/>
<path d="M5916 7262 c5 -5 33 -25 62 -46 29 -21 57 -46 62 -56 10 -18 -5 -54
-66 -157 l-19 -33 36 -36 37 -36 7 63 c4 35 17 85 31 111 42 83 33 109 -61
172 -35 23 -114 39 -89 18z"/>
<path d="M1071 7175 c-17 -20 -38 -46 -46 -59 -19 -29 -36 -86 -26 -86 13 0
50 40 67 71 18 36 45 109 40 109 -2 0 -18 -16 -35 -35z"/>
<path d="M6450 7165 c-24 -29 15 -70 45 -45 13 10 12 15 -3 36 -20 28 -25 29
-42 9z"/>
<path d="M6066 6881 c5 -4 31 -14 58 -21 116 -32 226 -143 226 -231 0 -42 -18
-61 -75 -79 -112 -36 -146 -52 -160 -80 -22 -42 -18 -57 6 -26 30 38 50 46
136 56 99 11 117 27 118 107 0 93 -22 151 -79 208 -32 32 -66 55 -92 63 -47
14 -153 16 -138 3z"/>
<path d="M6485 6790 l-39 -40 25 -26 c13 -14 36 -32 51 -40 25 -13 30 -12 48
6 11 11 20 28 20 38 0 18 -50 102 -60 102 -3 0 -23 -18 -45 -40z"/>
<path d="M5532 6437 c-13 -6 -21 -18 -20 -26 5 -24 41 -25 62 -2 17 19 17 20
-1 29 -12 6 -26 6 -41 -1z"/>
<path d="M2920 6395 c0 -32 3 -35 28 -35 82 1 101 40 28 59 -25 6 -47 11 -50
11 -3 0 -6 -16 -6 -35z"/>
<path d="M5886 6377 c-15 -12 -50 -86 -44 -93 2 -1 25 11 51 28 l47 30 39 -31
c39 -31 74 -40 86 -21 7 11 -89 77 -132 89 -22 6 -37 5 -47 -2z"/>
<path d="M5786 6248 c10 -20 14 -45 11 -70 -6 -43 1 -47 28 -18 33 36 3 120
-42 120 -11 0 -10 -7 3 -32z"/>
<path d="M6209 6251 c-23 -19 -24 -19 -5 -40 20 -22 37 -17 57 20 15 30 -23
44 -52 20z"/>
<path d="M5430 6177 c0 -29 28 -81 51 -95 12 -8 56 -17 98 -21 42 -5 88 -14
101 -21 l24 -13 -34 -29 -35 -29 30 7 c93 22 144 60 130 96 -6 14 -11 15 -30
6 -19 -8 -32 -7 -59 6 -22 10 -49 15 -73 11 -21 -3 -52 -7 -69 -9 -49 -6 -88
17 -112 65 -12 24 -22 36 -22 26z"/>
<path d="M5888 6020 c-51 -32 -58 -44 -32 -54 47 -18 87 6 96 58 5 29 -13 28
-64 -4z"/>
<path d="M6413 5989 c-53 -31 -63 -51 -47 -93 8 -22 57 -20 76 2 22 24 50 93
44 109 -7 18 -14 17 -73 -18z"/>
<path d="M5220 5977 c0 -67 152 -111 247 -72 54 23 35 28 -54 14 -71 -11 -83
-10 -116 6 -21 10 -45 31 -53 46 -18 35 -24 36 -24 6z"/>
<path d="M5517 5873 c-4 -3 -7 -20 -7 -36 0 -26 3 -29 23 -23 12 3 32 6 45 6
27 0 28 10 2 38 -20 21 -50 29 -63 15z"/>
<path d="M2991 3166 c-34 -54 -8 -92 32 -48 20 22 21 42 4 66 -13 17 -15 16
-36 -18z"/>
<path d="M3332 2822 c-35 -30 -39 -43 -18 -62 12 -9 24 -6 60 15 51 30 54 35
28 58 -25 22 -31 21 -70 -11z"/>
<path d="M2976 2791 c-17 -19 -17 -21 0 -50 21 -36 29 -36 52 1 15 25 15 28
-3 47 -22 26 -27 26 -49 2z"/>
<path d="M3478 2634 c-9 -8 42 -154 53 -154 18 0 79 29 79 37 0 9 -112 123
-121 123 -3 0 -8 -3 -11 -6z"/>
<path d="M7383 2375 c-28 -14 -58 -34 -68 -45 -17 -18 -16 -20 16 -39 46 -28
111 -27 177 4 28 13 52 28 52 34 0 5 -14 23 -31 40 -38 39 -77 40 -146 6z"/>
<path d="M6949 2201 c-75 -21 -141 -41 -147 -45 -31 -19 12 -86 54 -86 10 0
71 14 134 30 123 31 157 53 144 94 -9 28 -24 46 -38 45 -6 0 -72 -17 -147 -38z"/>
<path d="M6601 2199 c-9 -27 -14 -30 -43 -27 -32 3 -33 2 -32 -35 2 -65 29
-82 129 -82 46 1 87 4 90 7 6 5 -121 168 -131 168 -1 0 -7 -14 -13 -31z"/>
<path d="M6120 2127 c0 -51 78 -147 119 -147 14 0 -4 64 -29 104 -19 32 -68
76 -84 76 -3 0 -6 -15 -6 -33z"/>
<path d="M6305 2130 c-14 -22 9 -50 79 -99 41 -28 79 -51 85 -51 31 0 16 29
-45 91 -66 66 -103 85 -119 59z"/>
</g>
</svg>
